<?xml version="1.0" encoding="utf-8"?>
<!-- Generator: Adobe Illustrator 22.1.0, SVG Export Plug-In . SVG Version: 6.00 Build 0)  -->
<svg version="1.1" xmlns="http://www.w3.org/2000/svg" xmlns:xlink="http://www.w3.org/1999/xlink" x="0px" y="0px"
	 viewBox="0 0 780 86" style="enable-background:new 0 0 780 86;" xml:space="preserve">
<style type="text/css">
	.st0{fill:#ECECEC;}
	.st1{fill:none;}
	.st2{fill:#898989;}
</style>
<g id="Layer_2">
	<path class="st0" d="M461.5,85.2c-4.8,0-9.2-1.2-13.2-3.7c-3.9-2.5-7-5.8-9.2-9.9c-0.6-1-0.8-1.9-0.8-2.7c0-1.3,0.5-2.4,1.5-3.3
		c1-0.8,2.1-1.2,3.1-1.2c0.9,0,1.7,0.2,2.4,0.7c0.8,0.5,1.4,1.1,2,1.8c1.6,2.7,3.6,4.8,6,6.4c2.4,1.6,5.1,2.4,8.2,2.4
		c3.3,0,6.1-0.7,8.6-2.1c2.5-1.4,4.5-3.4,6-5.9c1.5-2.5,2.2-5.3,2.2-8.5V5.5c0-1.3,0.5-2.5,1.5-3.4c1-0.9,2.2-1.4,3.6-1.4
		c1.4,0,2.6,0.5,3.5,1.4c0.9,0.9,1.4,2,1.4,3.4v53.7c0,4.8-1.2,9.2-3.5,13.2c-2.3,4-5.5,7.1-9.5,9.4C471.3,84,466.7,85.2,461.5,85.2
		z"/>
	<g>
		<polygon points="11.1,17.1 13.6,20.9 13.6,14 		"/>
		<path class="st0" d="M43.1,52.4"/>
		<polygon points="74.7,17.1 71.7,16.5 71.7,21.6 		"/>
		<path class="st0" d="M43.1,50.8c0-1-0.3-1.9-0.8-2.7L13.6,4.7c-0.5-0.6-1.1-1.1-2-1.5c-0.8-0.4-1.6-0.6-2.3-0.6
			c-1.4,0-2.6,0.5-3.5,1.5c-0.9,1-1.4,2.1-1.4,3.4v73.7c0,1.3,0.4,2.5,1.2,3.5C6.6,85.5,7.6,86,9,86c1.3,0,2.5-0.5,3.3-1.4
			c0.9-1,1.3-2.1,1.3-3.5V20.9l0,0l0,0l0,0l25,38.6c0.1,0.2,0.3,0.4,0.4,0.6c0.4,0.4,0.9,0.8,1.5,1.2c0.8,0.5,1.6,0.6,2.4,0.6v-9.4
			L43.1,50.8z"/>
		<path class="st0" d="M71.7,21.6l0,59.3c0,1.4,0.5,2.8,1.6,3.8c0.9,0.8,2.1,1.3,3.4,1.3c1.3,0,2.5-0.4,3.4-1.3
			c1.1-1,1.6-2.4,1.6-3.8l0-73.5c0-1.4-0.5-2.6-1.4-3.5c-1-0.9-2.1-1.3-3.3-1.4c-1.7-0.1-3.1,0.7-4.2,2.2l-0.5,0.9
			c-0.3,0.7-0.5,1.1-0.5,1.7v9.1"/>
	</g>
	<path class="st0" d="M568,53.8L568,53.8h-28.5c-1.2,0-2.3,0.7-2.8,1.9l-3.1,7.4h34.7c1.4,0,2.7,0.9,3.3,2.2l7.1,17.1
		c0.4,1,1,1.8,1.8,2.4c0.8,0.6,1.7,0.8,2.6,0.8c1.2,0,2.3-0.4,3.2-1.3c1-0.8,1.4-2,1.4-3.4c0-0.6-0.1-1.3-0.4-1.9L556.7,4.8
		c-0.3-1-0.9-1.7-1.7-2.3c-0.8-0.6-1.8-0.8-2.8-0.8c-1-0.1-2,0.1-2.8,0.7c-0.8,0.5-1.4,1.3-1.8,2.4l-0.3,0.8c-0.2,0.5-0.2,1.1,0,1.6
		"/>
	<path class="st0" d="M155.5,53.9L155.5,53.9H127c-1.2,0-2.3,0.7-2.8,1.9l-3.1,7.4h34.7c1.4,0,2.7,0.9,3.3,2.2l7.1,17.1
		c0.4,1,1,1.8,1.8,2.4c0.8,0.6,1.7,0.8,2.6,0.8c1.2,0,2.3-0.4,3.2-1.3c1-0.8,1.4-2,1.4-3.4c0-0.6-0.1-1.3-0.4-1.9L144.2,4.8
		c-0.3-1-0.9-1.7-1.7-2.3c-0.8-0.6-1.8-0.8-2.8-0.8c-1-0.1-2,0.1-2.8,0.7c-0.8,0.5-1.4,1.3-1.8,2.4l-0.3,0.8c-0.2,0.5-0.2,1.1,0,1.6
		"/>
	<g>
		<path class="st1" d="M256.8,41.3c2-1.4,3.7-3.4,5-6c1.3-2.6,2-5.5,2-8.7c0-4.2-1.3-7.7-4-10.5c-2.7-2.8-6-4.2-10.1-4.2"/>
		<path d="M259.2,47.9c0.4-0.2,0.8-0.4,1.3-0.6c-1.2-0.6-2.5-1-3.9-1.3L259.2,47.9z"/>
		<path class="st0" d="M260.5,47.4c2.3,1.1,4.5-2.5,6.4-4.3c2.2-2.1,4-4.6,5.2-7.5c1.3-2.9,1.9-6,1.9-9.3c0-4.6-1.1-8.7-3.2-12.2
			c-2.1-3.5-4.9-6.3-8.5-8.3c-3.6-2-7.6-3-12-3h-32.8c-1.3,0-2.5,0.5-3.4,1.4c-0.9,0.9-1.4,2-1.4,3.4v0c0,2.4,2,4.4,4.4,4.4h32.6
			c4,0,7.4,1.4,10.1,4.2c2.7,2.8,4,6.3,4,10.5c0,3.3-0.7,6.2-2,8.7c-1.3,2.6-3,4.6-5,6c-1.3,0.9-2.7,1.6-4.1,2
			c-1.4,0.4-2.3,1.6-2.3,3.1v2.9c0,1.9,1,3.2,2.5,3.5l0,0c1.7,0.4,3.2,1.1,4.5,2.1c1.3,1,2.4,2.4,3.2,4c0.8,1.7,1.2,3.8,1.2,6.3
			c0,4.5,0.4,8.1,1.2,10.7c0.8,2.6,1.8,4.6,3,6c1.2,1.4,2.4,2.4,3.7,3.2c0.6,0.4,1.4,0.6,2.3,0.7c0.9,0.1,1.7,0,2.6-0.3
			c0.9-0.3,1.5-0.8,2-1.5c0.8-1.1,1-2.3,0.7-3.5c-0.4-1.2-1.1-2.1-2.2-2.9c-0.9-0.6-1.5-1.3-2-2.3c-0.5-1-0.8-2.4-1.1-4.1
			c-0.2-1.7-0.4-4.1-0.6-7c-0.1-3.3-0.8-6.2-2.1-8.7c-1.3-2.5-3.1-4.6-5.2-6.2C262.8,48.6,261.7,47.9,260.5,47.4z"/>
		<path class="st0" d="M222.8,43.6H216c-1.7,0-3.1,1.4-3.1,3.1v34.3c0,1.3,0.5,2.5,1.6,3.5c1.1,1,2.4,1.4,3.9,1.4
			c1.3,0,2.4-0.5,3.2-1.4c0.8-1,1.2-2.1,1.2-3.5L222.8,43.6z"/>
		<line class="st2" x1="222.6" y1="62.8" x2="222.6" y2="62.8"/>
	</g>
	<g>
		<polygon class="st0" points="326.6,43.6 326.6,45.6 327.4,46.7 		"/>
		<path class="st0" d="M331.6,36.5l-6-8.2L308.3,4.5c-1-1.5-2.3-2.3-3.9-2.3c-1.1,0-2.2,0.5-3.3,1.4c-1.1,0.9-1.7,2-1.7,3.4
			c0,0.6,0.1,1.1,0.3,1.7c0.2,0.6,0.5,1.2,1,1.8l25.9,35.1l0,0l0,0l0,0v35.5c0,1.3,0.5,2.5,1.4,3.5c0.9,1,2.1,1.4,3.5,1.4
			c1.3,0,2.4-0.5,3.3-1.4c0.9-1,1.4-2.1,1.4-3.5V70.6V46.4l0-0.7V44c0-0.9-0.3-1.7-0.8-2.4l-2.5-3.4L331.6,36.5z"/>
		<polygon class="st0" points="330.7,37.9 332.9,38.3 331.6,36.5 		"/>
		<line class="st0" x1="336.1" y1="42.7" x2="336.1" y2="42.7"/>
		<polygon class="st0" points="332.9,38.3 332.9,38.3 331.6,36.5 331.6,36.5 		"/>
		<polygon class="st0" points="336.1,42.7 336.1,42.7 336.1,42.7 		"/>
		<polygon class="st0" points="331.6,36.5 325.7,28.3 331.6,36.5 		"/>
		<line class="st0" x1="336.1" y1="42.7" x2="336.1" y2="46.4"/>
	</g>
	<g>
		<polygon class="st0" points="676.3,69.8 674.8,67.7 674.8,71.7 		"/>
		<polygon class="st0" points="624,16.1 626.4,19.2 626.4,14.7 		"/>
		<path class="st0" d="M626.1,3.4c-0.4-0.6-1-1-1.7-1.2c-0.8-0.3-1.5-0.4-2.2-0.4c-1.3,0-2.4,0.4-3.3,1.3c-0.9,0.9-1.4,2-1.4,3.5
			v74.1c0,1.3,0.4,2.3,1.2,3.2c0.8,0.8,1.8,1.3,3.1,1.3c1.3,0,2.4-0.4,3.3-1.3c0.8-0.8,1.3-1.9,1.3-3.2V19.2l0,0l0,0l0,0l48.6,64.2
			c0.4,0.5,1,0.9,1.7,1.1c0.7,0.3,1.4,0.4,2.1,0.4c1.3,0,2.5-0.5,3.5-1.4c1-0.9,1.4-2.1,1.4-3.6v-0.7l-8.8-11.6L626.1,3.4z"/>
	</g>
	<g>
		<path class="st0" d="M731.1,10.8C731.1,10.9,731.1,10.9,731.1,10.8l37.2,0c1.3,0,2.5-0.4,3.5-1.2s1.4-1.9,1.4-3.3
			c0-1.3-0.5-2.5-1.4-3.3c-1-0.9-2.1-1.3-3.5-1.3h-33.9c-1.8,0-3.3,1.5-3.3,3.3v3.8V10.8z"/>
		<path class="st0" d="M731.1,42.2c0,2.5,2.1,4.6,4.6,4.6H763c1.3,0,2.5-0.4,3.5-1.3c1-0.8,1.4-1.9,1.4-3.3c0-1.3-0.5-2.5-1.4-3.3
			c-1-0.9-2.1-1.3-3.5-1.3h-27.3C733.1,37.6,731.1,39.7,731.1,42.2L731.1,42.2z"/>
		<path class="st0" d="M767.9,75.7l-36.8,0v0.8v3.6c0,2.7,2.2,4.8,4.8,4.8h32.4c1.3,0,2.5-0.4,3.5-1.3s1.4-2,1.4-3.3
			c0-0.9-0.3-1.8-0.8-2.5C771.4,76.4,769.6,75.7,767.9,75.7z"/>
		<path class="st0" d="M731.1,38.9"/>
	</g>
</g>
<g id="Layer_1">
</g>
</svg>
