<svg aria-hidden="true" style="position: absolute; width: 0; height: 0; overflow: hidden;" version="1.1" xmlns="http://www.w3.org/2000/svg" xmlns:xlink="http://www.w3.org/1999/xlink">
<defs>
<symbol id="icon-eye" viewBox="0 0 32 32">
<path d="M31.643 14.768c-1.667-2.726-3.908-4.917-6.723-6.571s-5.789-2.482-8.919-2.482-6.104 0.827-8.92 2.482c-2.816 1.655-5.057 3.845-6.723 6.571-0.238 0.417-0.357 0.827-0.357 1.232s0.119 0.816 0.357 1.232c1.667 2.726 3.908 4.917 6.723 6.571s5.789 2.482 8.92 2.482c3.131 0 6.104-0.824 8.919-2.473s5.057-3.842 6.723-6.58c0.238-0.416 0.357-0.827 0.357-1.232s-0.119-0.816-0.357-1.232zM12.169 9.884c1.065-1.065 2.342-1.598 3.83-1.598 0.238 0 0.441 0.084 0.607 0.25s0.25 0.369 0.25 0.607c0 0.238-0.084 0.441-0.25 0.607s-0.369 0.25-0.607 0.25c-1.024 0-1.899 0.363-2.625 1.089s-1.089 1.601-1.089 2.625c0 0.238-0.084 0.441-0.25 0.607s-0.369 0.25-0.607 0.25c-0.238 0-0.441-0.083-0.607-0.25s-0.25-0.369-0.25-0.607c0-1.488 0.533-2.765 1.598-3.83zM23.759 21.831c-2.387 1.446-4.973 2.17-7.759 2.17s-5.372-0.723-7.759-2.17-4.372-3.39-5.955-5.831c1.809-2.81 4.077-4.911 6.804-6.304-0.726 1.238-1.089 2.577-1.089 4.018 0 2.203 0.783 4.086 2.348 5.652s3.449 2.348 5.652 2.348c2.202 0 4.086-0.783 5.652-2.348s2.348-3.449 2.348-5.652c0-1.44-0.363-2.78-1.089-4.018 2.726 1.393 4.994 3.494 6.803 6.304-1.583 2.441-3.568 4.384-5.955 5.831z"></path>
</symbol>
<symbol id="icon-arrow" viewBox="0 0 24 24">
<path d="M5 12H18M13 6L18.2929 11.2929C18.6834 11.6834 18.6834 12.3166 18.2929 12.7071L13 18" stroke-width="2" stroke-linecap="round"/>
</symbol>









<!-- /////////////////////////////////////////////////social -->
<symbol id="icon-foundation" viewBox="0 0 32 32">
<path d="M21.19 15.986c0 2.968-2.406 5.373-5.373 5.373s-5.373-2.406-5.373-5.373c0-2.968 2.406-5.373 5.373-5.373s5.373 2.406 5.373 5.373zM5.519 11.124c0.098-0.171 0.345-0.171 0.443 0l5.484 9.499c0.098 0.171-0.025 0.384-0.222 0.384h-10.969c-0.197 0-0.32-0.213-0.222-0.384zM22.405 10.932c-0.283 0-0.512 0.229-0.512 0.512v9.084c0 0.283 0.229 0.512 0.512 0.512h9.084c0.283 0 0.512-0.229 0.512-0.512v-9.084c0-0.283-0.229-0.512-0.512-0.512z"></path>
</symbol>
<symbol id="icon-instagram" viewBox="0 0 32 32">
<path d="M16 2.881c4.275 0 4.781 0.019 6.462 0.094 1.563 0.069 2.406 0.331 2.969 0.55 0.744 0.288 1.281 0.638 1.837 1.194 0.563 0.563 0.906 1.094 1.2 1.838 0.219 0.563 0.481 1.412 0.55 2.969 0.075 1.688 0.094 2.194 0.094 6.463s-0.019 4.781-0.094 6.463c-0.069 1.563-0.331 2.406-0.55 2.969-0.288 0.744-0.637 1.281-1.194 1.837-0.563 0.563-1.094 0.906-1.837 1.2-0.563 0.219-1.413 0.481-2.969 0.55-1.688 0.075-2.194 0.094-6.463 0.094s-4.781-0.019-6.463-0.094c-1.563-0.069-2.406-0.331-2.969-0.55-0.744-0.288-1.281-0.637-1.838-1.194-0.563-0.563-0.906-1.094-1.2-1.837-0.219-0.563-0.481-1.413-0.55-2.969-0.075-1.688-0.094-2.194-0.094-6.463s0.019-4.781 0.094-6.463c0.069-1.563 0.331-2.406 0.55-2.969 0.288-0.744 0.638-1.281 1.194-1.838 0.563-0.563 1.094-0.906 1.838-1.2 0.563-0.219 1.412-0.481 2.969-0.55 1.681-0.075 2.188-0.094 6.463-0.094zM16 0c-4.344 0-4.887 0.019-6.594 0.094-1.7 0.075-2.869 0.35-3.881 0.744-1.056 0.412-1.95 0.956-2.837 1.85-0.894 0.888-1.438 1.781-1.85 2.831-0.394 1.019-0.669 2.181-0.744 3.881-0.075 1.713-0.094 2.256-0.094 6.6s0.019 4.887 0.094 6.594c0.075 1.7 0.35 2.869 0.744 3.881 0.413 1.056 0.956 1.95 1.85 2.837 0.887 0.887 1.781 1.438 2.831 1.844 1.019 0.394 2.181 0.669 3.881 0.744 1.706 0.075 2.25 0.094 6.594 0.094s4.888-0.019 6.594-0.094c1.7-0.075 2.869-0.35 3.881-0.744 1.050-0.406 1.944-0.956 2.831-1.844s1.438-1.781 1.844-2.831c0.394-1.019 0.669-2.181 0.744-3.881 0.075-1.706 0.094-2.25 0.094-6.594s-0.019-4.887-0.094-6.594c-0.075-1.7-0.35-2.869-0.744-3.881-0.394-1.063-0.938-1.956-1.831-2.844-0.887-0.887-1.781-1.438-2.831-1.844-1.019-0.394-2.181-0.669-3.881-0.744-1.712-0.081-2.256-0.1-6.6-0.1v0z"></path>
<path d="M16 7.781c-4.537 0-8.219 3.681-8.219 8.219s3.681 8.219 8.219 8.219 8.219-3.681 8.219-8.219c0-4.537-3.681-8.219-8.219-8.219zM16 21.331c-2.944 0-5.331-2.387-5.331-5.331s2.387-5.331 5.331-5.331c2.944 0 5.331 2.387 5.331 5.331s-2.387 5.331-5.331 5.331z"></path>
<path d="M26.462 7.456c0 1.060-0.859 1.919-1.919 1.919s-1.919-0.859-1.919-1.919c0-1.060 0.859-1.919 1.919-1.919s1.919 0.859 1.919 1.919z"></path>
</symbol>
<symbol id="icon-mail" viewBox="0 0 32 32">
<path d="M26.667 0h-21.333c-2.934 0-5.334 2.4-5.334 5.334v21.332c0 2.936 2.4 5.334 5.334 5.334h21.333c2.934 0 5.333-2.398 5.333-5.334v-21.332c0-2.934-2.399-5.334-5.333-5.334zM5.707 27.707l-2.414-2.414 8-8 0.914 0.914-6.5 9.5zM4.793 6.207l0.914-0.914 10.293 8.293 10.293-8.293 0.914 0.914-11.207 13.207-11.207-13.207zM26.293 27.707l-6.5-9.5 0.914-0.914 8 8-2.414 2.414z"></path>
</symbol>
<symbol id="icon-opensea" viewBox="0 0 32 32">
<path d="M2.334 17.84l0.108-0.169 6.504-10.174c0.095-0.149 0.319-0.134 0.39 0.028 1.086 2.435 2.024 5.463 1.585 7.349-0.188 0.776-0.701 1.826-1.279 2.797-0.074 0.141-0.157 0.28-0.244 0.413-0.041 0.062-0.11 0.098-0.185 0.098h-6.688c-0.18 0-0.285-0.195-0.19-0.342z"></path>
<path d="M31.322 19.73v1.611c0 0.092-0.056 0.175-0.139 0.21-0.503 0.216-2.227 1.007-2.944 2.003-1.829 2.545-3.226 6.185-6.349 6.185h-13.030c-4.618 0-8.361-3.755-8.361-8.389v-0.149c0-0.123 0.1-0.223 0.223-0.223h7.264c0.144 0 0.249 0.134 0.236 0.275-0.051 0.473 0.036 0.956 0.259 1.395 0.431 0.876 1.325 1.423 2.291 1.423h3.596v-2.807h-3.555c-0.182 0-0.29-0.211-0.185-0.36 0.039-0.059 0.082-0.121 0.128-0.19 0.336-0.478 0.817-1.22 1.295-2.065 0.326-0.57 0.642-1.179 0.896-1.79 0.051-0.11 0.092-0.224 0.134-0.334 0.069-0.195 0.141-0.378 0.193-0.56 0.051-0.154 0.092-0.316 0.133-0.467 0.121-0.519 0.172-1.068 0.172-1.639 0-0.223-0.010-0.457-0.031-0.681-0.010-0.244-0.041-0.488-0.072-0.732-0.021-0.216-0.059-0.429-0.1-0.652-0.051-0.326-0.123-0.65-0.206-0.976l-0.028-0.123c-0.062-0.223-0.113-0.437-0.185-0.66-0.203-0.701-0.437-1.384-0.683-2.024-0.090-0.254-0.193-0.498-0.295-0.742-0.152-0.367-0.306-0.701-0.447-1.017-0.072-0.144-0.133-0.275-0.195-0.408-0.069-0.152-0.141-0.303-0.213-0.447-0.051-0.11-0.11-0.213-0.152-0.316l-0.439-0.812c-0.062-0.11 0.041-0.241 0.162-0.208l2.756 0.745c0.005 0 0.008 0.003 0.010 0.003l0.362 0.1 0.544 0.154v-1.634c0-0.789 0.632-1.428 1.413-1.428 0.39 0 0.745 0.159 0.999 0.419s0.413 0.614 0.413 1.009v2.425l0.293 0.082c0.023 0.008 0.046 0.018 0.067 0.033 0.072 0.054 0.175 0.134 0.306 0.231 0.103 0.082 0.213 0.182 0.347 0.285 0.265 0.213 0.581 0.488 0.927 0.804 0.092 0.080 0.182 0.162 0.265 0.244 0.447 0.416 0.948 0.904 1.425 1.443 0.134 0.152 0.265 0.306 0.398 0.467 0.134 0.164 0.275 0.326 0.398 0.488 0.162 0.216 0.337 0.439 0.488 0.673 0.072 0.11 0.154 0.223 0.223 0.334 0.195 0.295 0.367 0.601 0.532 0.907 0.069 0.141 0.141 0.295 0.203 0.447 0.182 0.408 0.326 0.825 0.419 1.241 0.028 0.090 0.049 0.188 0.059 0.275v0.021c0.031 0.123 0.041 0.254 0.051 0.388 0.041 0.426 0.020 0.853-0.072 1.282-0.038 0.182-0.090 0.354-0.151 0.537-0.062 0.175-0.123 0.357-0.203 0.529-0.154 0.357-0.337 0.714-0.552 1.048-0.069 0.123-0.151 0.254-0.234 0.378-0.090 0.131-0.182 0.254-0.265 0.375-0.113 0.154-0.234 0.316-0.357 0.46-0.11 0.151-0.224 0.303-0.347 0.437-0.172 0.203-0.336 0.395-0.509 0.581-0.103 0.121-0.213 0.244-0.326 0.354-0.11 0.123-0.224 0.234-0.326 0.337-0.172 0.172-0.316 0.306-0.437 0.416l-0.282 0.259c-0.041 0.036-0.095 0.056-0.151 0.056h-2.188v2.807h2.753c0.616 0 1.202-0.218 1.675-0.619 0.162-0.141 0.868-0.753 1.703-1.675 0.028-0.031 0.064-0.054 0.105-0.064l7.605-2.199c0.141-0.041 0.285 0.067 0.285 0.216z"></path>
</symbol>
<symbol id="icon-telegram" viewBox="0 0 32 32">
<path d="M16 0c-8.838 0-16 7.162-16 16s7.162 16 16 16 16-7.163 16-16-7.163-16-16-16zM23.863 10.969l-2.625 12.369c-0.181 0.881-0.712 1.087-1.45 0.681l-4-2.956-1.919 1.869c-0.225 0.219-0.4 0.4-0.8 0.4-0.519 0-0.431-0.194-0.606-0.688l-1.363-4.475-3.956-1.231c-0.856-0.262-0.862-0.85 0.194-1.269l15.412-5.95c0.7-0.319 1.381 0.169 1.113 1.25z"></path>
</symbol>
<symbol id="icon-twitter" viewBox="0 0 32 32">
<path d="M32 7.075c-1.175 0.525-2.444 0.875-3.769 1.031 1.356-0.813 2.394-2.1 2.887-3.631-1.269 0.75-2.675 1.3-4.169 1.594-1.2-1.275-2.906-2.069-4.794-2.069-3.625 0-6.563 2.938-6.563 6.563 0 0.512 0.056 1.012 0.169 1.494-5.456-0.275-10.294-2.888-13.531-6.862-0.563 0.969-0.887 2.1-0.887 3.3 0 2.275 1.156 4.287 2.919 5.463-1.075-0.031-2.087-0.331-2.975-0.819 0 0.025 0 0.056 0 0.081 0 3.181 2.263 5.838 5.269 6.437-0.55 0.15-1.131 0.231-1.731 0.231-0.425 0-0.831-0.044-1.237-0.119 0.838 2.606 3.263 4.506 6.131 4.563-2.25 1.762-5.075 2.813-8.156 2.813-0.531 0-1.050-0.031-1.569-0.094 2.913 1.869 6.362 2.95 10.069 2.95 12.075 0 18.681-10.006 18.681-18.681 0-0.287-0.006-0.569-0.019-0.85 1.281-0.919 2.394-2.075 3.275-3.394z"></path>
</symbol>
<!-- /////////////////////////////////////////////////end-social -->
</defs>
</svg>
